<svg viewBox="0 0 902.4 282.1" xmlns="http://www.w3.org/2000/svg"><path d="M192.9 63.7c-5.8 0-10.6 4.7-10.6 10.6v33.5C171.2 98 156.6 92 140.7 92c-34.7 0-62.8 28.1-62.8 62.8s28.1 62.8 62.8 62.8 62.8-28.1 62.8-62.8V74.3c-.1-5.8-4.8-10.6-10.6-10.6zm-52.2 132.7c-23 0-41.6-18.6-41.6-41.6s18.6-41.6 41.6-41.6 41.6 18.6 41.6 41.6-18.6 41.6-41.6 41.6z"/><path d="M140.7 0C63 0 0 63 0 140.7s63 140.7 140.7 140.7 140.7-63 140.7-140.7C281.3 63 218.4 0 140.7 0zm0 265.1c-68.7 0-124.4-55.7-124.4-124.4S72 16.3 140.7 16.3 265.1 72 265.1 140.7s-55.7 124.4-124.4 124.4zM362.9 23.6h-45.2v117.1h45.2c32.3 0 58.6-26.2 58.6-58.6-.1-32.3-26.3-58.5-58.6-58.5zm0 93.3h-20.5V47.4h20.5c19.2 0 34.7 15.6 34.7 34.7 0 19.2-15.6 34.8-34.7 34.8zM425.6 23.6h103.7v24.7H425.6zM425.6 116h103.7v24.7H425.6zM438.2 69.8h78.4v24.7h-78.4zM573.3 23.6v83.8c0 4.8-3.9 8.7-8.7 8.7-3.8 0-7-2.5-8.2-5.9l-24.4 4.1c.7 3.1 1.8 6.1 3.2 8.8 5.6 10.5 16.7 17.6 29.4 17.6 18.4 0 33.3-14.9 33.3-33.3V23.6h-24.6zM667.3 43.8l-7.2-19.9-1-.3h-9.8l-1 .3-7.2 19.9-35.3 96.9h26.3l22.1-60.9 22.2 60.9h26.2zM731.7 120.5l7.2 19.8 1 .4h9.8l1-.4 7.2-19.8 35.3-96.9H767l-22.2 60.8-22.1-60.8h-26.3zM902.4 23.6h-24.7v67.1c-.2 14-11.6 25.4-25.7 25.4s-25.5-11.3-25.7-25.4V23.6h-24.7v67.1c.2 27.7 22.6 50 50.3 50s50.2-22.4 50.3-50V23.6zM326 249.8v-5.5c6.1 3.2 12.3 4.8 18.6 4.8 6.7 0 11.7-1.1 15.2-3.4s5.2-5.4 5.2-9.5c0-3.6-1.2-6.4-3.5-8.6-2.3-2.1-7.4-5-15.1-8.7-8.7-4.1-14.1-7.6-16.4-10.4s-3.5-6-3.5-9.6c0-4.9 2.3-9.1 7-12.6 4.7-3.4 10.9-5.2 18.8-5.2 5.1 0 10.2.7 15.3 2.1v5.1c-5-1.9-10.3-2.8-16-2.8-5.8 0-10.4 1.2-13.8 3.6s-5.1 5.5-5.1 9.2c0 3.6 1.2 6.4 3.5 8.5s7.3 5 15 8.6c8 3.7 13.3 7 15.9 9.9s4 6.2 4 9.9c0 5.4-2.3 9.7-6.8 13.1s-11 5.1-19.3 5.1c-2.9 0-6.3-.4-10.2-1.1-3.8-.7-6.7-1.5-8.8-2.5zM444.2 252.3v-33.6h-48.9v33.6h-5.9v-70h5.9v32h48.9v-32h5.8v70h-5.8zM507.1 253.5c-12.1 0-21.7-3.3-28.9-9.9s-10.8-15.1-10.8-25.6c0-11.2 3.7-20.1 11.1-26.8s17.4-10.1 30.2-10.1c11.5 0 20.8 3.2 28 9.7 7.1 6.5 10.7 14.9 10.7 25.4 0 11.6-3.7 20.7-11 27.3-7.3 6.7-17.1 10-29.3 10zm.6-68c-9.9 0-18.1 2.9-24.5 8.8s-9.6 13.6-9.6 23.1c0 9.6 3 17.3 9.1 23s14.2 8.6 24.3 8.6c10.6 0 18.9-2.8 25.1-8.5 6.2-5.6 9.2-13.5 9.2-23.6 0-9.9-3-17.6-9-23.2-6.1-5.4-14.3-8.2-24.6-8.2zM570.7 224.2v28.1h-5.9v-70h20.6c8.8 0 15.5 1.7 20.1 5s7 8.2 7 14.6c0 6.5-2.6 11.9-7.8 16s-12.4 6.3-21.8 6.3h-12.2zm0-37.4v33h12.2c7.7 0 13.6-1.5 17.6-4.5s6-7.3 6-12.8c0-10.5-7.4-15.8-22.1-15.8h-13.7z"/></svg>