<svg xmlns="http://www.w3.org/2000/svg" viewBox="0 0 281.3 281.3"><path d="M192.9 63.7c-5.8 0-10.6 4.7-10.6 10.6v33.5a62.77 62.77 0 0 0-104.4 47c0 34.7 28.1 62.8 62.8 62.8s62.8-28.1 62.8-62.8V74.3c-.1-5.8-4.8-10.6-10.6-10.6zm-52.2 132.7c-23 0-41.6-18.6-41.6-41.6s18.6-41.6 41.6-41.6 41.6 18.6 41.6 41.6-18.6 41.6-41.6 41.6z"/><path d="M140.7 0C63 0 0 63 0 140.7s63 140.7 140.7 140.7 140.7-63 140.7-140.7C281.3 63 218.4 0 140.7 0zm0 265.1c-68.7 0-124.4-55.7-124.4-124.4S72 16.3 140.7 16.3 265.1 72 265.1 140.7s-55.7 124.4-124.4 124.4z"/></svg>